HIERARCHY
ROOT Hips
{
  OFFSET 88.6906 37.1997 0.693295
  CHANNELS 6 Xposition Yposition Zposition Zrotation Xrotation Yrotation
  JOINT LeftHip
  {
    OFFSET 0.321227 0.387889 3.39282
    CHANNELS 6 Xposition Yposition Zposition Zrotation Xrotation Yrotation
    JOINT LeftKnee
    {
      OFFSET 2.48674 -16.6781 -7.53634
      CHANNELS 6 Xposition Yposition Zposition Zrotation Xrotation Yrotation
      JOINT LeftAnkle
      {
        OFFSET -0.0389695 -17.5351 3.83666
        CHANNELS 6 Xposition Yposition Zposition Zrotation Xrotation Yrotation
        End Site
        {
          OFFSET -0.474134 -3.06676 0.323404
        }
      }
    }
  }
  JOINT RightHip
  {
    OFFSET -0.414809 -0.585482 -3.35411
    CHANNELS 6 Xposition Yposition Zposition Zrotation Xrotation Yrotation
    JOINT RightKnee
    {
      OFFSET 3.09698 -17.8901 -3.3902
      CHANNELS 6 Xposition Yposition Zposition Zrotation Xrotation Yrotation
      JOINT RightAnkle
      {
        OFFSET 0.278209 -9.98205 14.9159
        CHANNELS 6 Xposition Yposition Zposition Zrotation Xrotation Yrotation
        End Site
        {
          OFFSET -0.448056 -1.52447 2.68508
        }
      }
    }
  }
  JOINT Chest
  {
    OFFSET -0.631815 4.47129 -0.702355
    CHANNELS 6 Xposition Yposition Zposition Zrotation Xrotation Yrotation
    JOINT CS_BVH
    {
      OFFSET -0.420698 6.32045 1.74353
      CHANNELS 6 Xposition Yposition Zposition Zrotation Xrotation Yrotation
      JOINT LeftCollar
      {
        OFFSET -1.96822 3.94255 1.53615
        CHANNELS 6 Xposition Yposition Zposition Zrotation Xrotation Yrotation
        JOINT LeftShoulder
        {
          OFFSET 0.491877 0.269123 5.78288
          CHANNELS 6 Xposition Yposition Zposition Zrotation Xrotation Yrotation
          JOINT LeftElbow
          {
            OFFSET 0.4712 1.41544 11.9875
            CHANNELS 6 Xposition Yposition Zposition Zrotation Xrotation Yrotation
            JOINT LeftWrist
            {
              OFFSET 0.559239 -2.95593 9.34784
              CHANNELS 6 Xposition Yposition Zposition Zrotation Xrotation Yrotation
              End Site
              {
                OFFSET 0.419714 -2.21845 7.01564
              }
            }
          }
        }
      }
      JOINT RightCollar
      {
        OFFSET -1.61819 4.34595 -0.52102
        CHANNELS 6 Xposition Yposition Zposition Zrotation Xrotation Yrotation
        JOINT RightShoulder
        {
          OFFSET 0.67378 1.73903 -5.76588
          CHANNELS 6 Xposition Yposition Zposition Zrotation Xrotation Yrotation
          JOINT RightElbow
          {
            OFFSET 6.49668 -1.88868 -8.77453
            CHANNELS 6 Xposition Yposition Zposition Zrotation Xrotation Yrotation
            JOINT RightWrist
            {
              OFFSET 6.67255 1.63426 -7.01703
              CHANNELS 6 Xposition Yposition Zposition Zrotation Xrotation Yrotation
              End Site
              {
                OFFSET 4.85154 1.18825 -5.102
              }
            }
          }
        }
      }
      JOINT Neck
      {
        OFFSET 0.00110435 3.98902 0.700157
        CHANNELS 6 Xposition Yposition Zposition Zrotation Xrotation Yrotation
        JOINT Head
        {
          OFFSET -1.34279 4.97738 0.598915
          CHANNELS 6 Xposition Yposition Zposition Zrotation Xrotation Yrotation
          End Site
          {
            OFFSET 0 4.14001 0
          }
        }
      }
    }
  }
}
MOTION
Frames:	4
Frame Time:	0.0333333
-80.9256 39.3881 -0.296908 -8.38189 -6.72835 81.813 0.321227 0.387889 3.39282 16.5925 -39.1436 47.4989 2.48674 -16.6781 -7.53634 10.7393 16.9362 26.1007 -0.0389695 -17.5351 3.83666 0.407552 -3.8306 -0.0330835 -0.414809 -0.585482 -3.35411 8.34448 -2.13772 69.3609 3.09698 -17.8901 -3.3902 28.4051 7.6095 -67.2009 0.278209 -9.98205 14.9159 8.458 -6.95656 0.727078 -0.631815 4.47129 -0.702355 20.7376 -22.1499 9.96075 -0.420698 6.32045 1.74353 -8.91238 7.49443 9.82765 -1.96822 3.94255 1.53615 -2.4527 -1.18815 -2.93544 0.491877 0.269123 5.78288 6.33611 32.3715 28.5897 0.4712 1.41544 11.9875 6.48041 -19.4224 6.85277 0.559239 -2.95593 9.34784 9.44593e-010 3.10263e-010 1.53874e-009 -1.61819 4.34595 -0.52102 -5.20654 -1.5327 11.1513 0.67378 1.73903 -5.76588 -39.286 13.9959 63.4268 6.49668 -1.88868 -8.77453 -67.3894 -46.7248 -55.2479 6.67255 1.63426 -7.01703 3.6937e-010 1.6659e-009 -1.69979e-009 0.00110435 3.98902 0.700157 -17.5409 6.26573 1.56144 -1.34279 4.97738 0.598915 10.5847 12.0709 -9.11772 
-79.1121 39.0436 -0.544532 -8.91856 -6.62906 81.7236 0.321227 0.387889 3.39282 13.6279 -38.1843 43.1106 2.48674 -16.6781 -7.53634 12.0062 17.5571 24.0686 -0.0389695 -17.5351 3.83666 1.93524 -2.22397 -0.0333515 -0.414809 -0.585482 -3.35411 6.4922 -0.913955 69.7236 3.09698 -17.8901 -3.3902 30.8841 6.47263 -65.2063 0.278209 -9.98205 14.9159 6.82586 -6.30889 0.458803 -0.631815 4.47129 -0.702355 20.1887 -23.0403 9.78095 -0.420698 6.32045 1.74353 -8.8436 8.52294 9.81545 -1.96822 3.94255 1.53615 -2.74825 -1.18832 -2.77453 0.491877 0.269123 5.78288 5.89163 31.2956 27.9448 0.4712 1.41544 11.9875 5.9717 -18.9705 6.63725 0.559239 -2.95593 9.34784 9.44593e-010 3.10263e-010 1.53874e-009 -1.61819 4.34595 -0.52102 -4.83398 -1.42323 10.6767 0.67378 1.73903 -5.76588 -39.3121 14.4602 63.3467 6.49668 -1.88868 -8.77453 -66.7701 -47.0035 -54.8283 6.67255 1.63426 -7.01703 3.6937e-010 1.6659e-009 -1.69979e-009 0.00110435 3.98902 0.700157 -8.01261 -0.522913 10.8196 -1.34279 4.97738 0.598915 20.7022 18.0045 0.023652 
-77.3454 38.9714 -0.867823 -9.04717 -5.09274 82.2356 0.321227 0.387889 3.39282 10.7801 -37.795 39.7802 2.48674 -16.6781 -7.53634 11.0766 17.4737 25.1874 -0.0389695 -17.5351 3.83666 1.72986 -2.46284 -0.0593874 -0.414809 -0.585482 -3.35411 3.61628 0.331431 70.4491 3.09698 -17.8901 -3.3902 32.8167 5.4431 -64.119 0.278209 -9.98205 14.9159 6.04049 -4.4339 0.123158 -0.631815 4.47129 -0.702355 17.1862 -24.3634 8.87287 -0.420698 6.32045 1.74353 -8.63778 10.4958 9.48832 -1.96822 3.94255 1.53615 -2.93869 -1.19192 -2.7666 0.491877 0.269123 5.78288 5.21585 29.6141 26.6622 0.4712 1.41544 11.9875 5.40392 -18.7264 6.32819 0.559239 -2.95593 9.34784 9.44593e-010 3.10263e-010 1.53874e-009 -1.61819 4.34595 -0.52102 -3.7835 -1.2402 10.2044 0.67378 1.73903 -5.76588 -39.4675 15.3175 63.2935 6.49668 -1.88868 -8.77453 -66.1793 -47.3388 -54.4299 6.67255 1.63426 -7.01703 3.6937e-010 1.6659e-009 -1.69979e-009 0.00110435 3.98902 0.700157 -7.10825 -1.39191 10.5999 -1.34279 4.97738 0.598915 19.7279 17.7287 0.608206 
-75.4952 38.961 -1.10855 -9.20835 -3.1352 83.4991 0.321227 0.387889 3.39282 6.30912 -36.5427 40.6875 2.48674 -16.6781 -7.53634 13.1506 18.0628 16.9034 -0.0389695 -17.5351 3.83666 4.01255 -0.734838 -0.142033 -0.414809 -0.585482 -3.35411 1.12037 -0.98066 70.8185 3.09698 -17.8901 -3.3902 38.0504 6.00256 -66.1119 0.278209 -9.98205 14.9159 6.13147 -3.55137 0.0214209 -0.631815 4.47129 -0.702355 10.9499 -26.3517 7.02943 -0.420698 6.32045 1.74353 -5.24741 12.5732 7.58336 -1.96822 3.94255 1.53615 -3.86094 -1.21969 -2.45724 0.491877 0.269123 5.78288 4.91483 27.0916 24.3563 0.4712 1.41544 11.9875 4.59635 -18.6813 5.80594 0.559239 -2.95593 9.34784 9.44593e-010 3.10263e-010 1.53874e-009 -1.61819 4.34595 -0.52102 -2.911 -1.06506 9.57411 0.67378 1.73903 -5.76588 -39.2518 16.3087 62.5701 6.49668 -1.88868 -8.77453 -64.3506 -48.5211 -53.1786 6.67255 1.63426 -7.01703 3.6937e-010 1.6659e-009 -1.69979e-009 0.00110435 3.98902 0.700157 -6.42901 -2.4446 10.8339 -1.34279 4.97738 0.598915 19.2696 18.1114 1.24896 
